Exact Audio Copy V0.99 prebeta 4 from 23. January 2008

Отчёт EAC об извлечении, выполненном 31. января 2010, 21:28

Avril Lavigne / Let Go (Limited Edition) CD2

Дисковод: Optiarc DVD RW AD-7200S   Adapter: 3  ID: 0

Режим чтения                 : Достоверность
Использование точного потока : Да
Отключение кэша аудио        : Да
Использование указателей C2  : Нет

Коррекция смещения при чтении                     : 48
Способность читать области Lead-in и Lead-out     : Нет
Заполнение пропущенных сэмплов тишиной            : Да
Удаление блоков с тишиной в начале и конце        : Нет
При вычислениях CRC использовались нулевые сэмплы : Да
Интерфейс                                         : Встроенный Win32-интерфейс для Win NT/2000
Обработка зазоров                                 : Добавлено к предыдущему треку

Выходной формат          : Пользовательский кодировщик
Выбранный битрейт        : 1024 kBit/s
Качество                 : Высокий
Добавление ID3-тэга      : Нет
Утилита сжатия           : C:\Program Files\FLAC\flac.exe
Дополнительные параметры : -8 -V -T "ARTIST=%a" -T "TITLE=%t" -T "ALBUM=%g" -T "DATE=%y" -T "TRACKNUMBER=%n" -T "GENRE=%m" -T "COMMENT=EAC Test & Copy" %s


TOC извлечённого CD

     Трек |   Старт  | Длительность | Начальный сектор | Конечный сектор 
    ---------------------------------------------------------------------
       1  |  0:00.00 |    3:28.65   |           0      |      15664      
       2  |  3:28.65 |    4:02.30   |       15665      |      33844      
       3  |  7:31.20 |    4:00.60   |       33845      |      51904      
       4  | 11:32.05 |    3:58.57   |       51905      |      69811      
       5  | 15:30.62 |    3:57.68   |       69812      |      87654      
       6  | 22:00.55 |   31:31.56   |       99055      |     240935      


Трек  1

     Имя файла E:\01._Get_Over_It.wav

     Длина предзазора  0:00:02.00

     Пиковый уровень 98.8 %
     Качество трека 99.9 %
     CRC теста E2E61C32
     CRC копии E2E61C32
     Точное извлечение (достоверность 5)  [AFBF6505]
     Копирование... OK

Трек  2

     Имя файла E:\02._Why.wav

     Длина предзазора  0:00:01.21

     Пиковый уровень 98.8 %
     Качество трека 99.9 %
     CRC теста D516C647
     CRC копии D516C647
     Точное извлечение (достоверность 5)  [78CDE294]
     Копирование... OK

Трек  3

     Имя файла E:\03._Unwanted_(Live).wav

     Длина предзазора  0:00:03.50

     Пиковый уровень 98.8 %
     Качество трека 100.0 %
     CRC теста 22B73124
     CRC копии 22B73124
     Точное извлечение (достоверность 5)  [187B5826]
     Копирование... OK

Трек  4

     Имя файла E:\04._I'm_With_You_(Live).wav

     Длина предзазора  0:00:02.09

     Пиковый уровень 98.8 %
     Качество трека 99.9 %
     CRC теста 80FBA932
     CRC копии 80FBA932
     Точное извлечение (достоверность 5)  [A5C7B0F8]
     Копирование... OK

Трек  5

     Имя файла E:\05._Nobody's_Fool_(Live).wav

     Длина предзазора  0:00:03.01

     Пиковый уровень 98.8 %
     Качество трека 100.0 %
     CRC теста 2C1EAC74
     CRC копии 2C1EAC74
     Точное извлечение (достоверность 5)  [E528BD2F]
     Копирование... OK


Все треки извлечены точно

Ошибок не произошло

Конец отчёта
